<svg width="119" height="27" fill="none" xmlns="http://www.w3.org/2000/svg"><g clip-path="url(#a)"><path d="m47.388 18.539 5.252-7.424 1.793-2.537c.383-.544.38-.546 1.167-.462V26.63h-2.136V14.043l-.172-.074c-.382.52-.77 1.035-1.146 1.559-1.313 1.83-2.617 3.664-3.934 5.492-.549.76-1.044.745-1.6-.026-1.689-2.345-3.38-4.692-5.162-7.162v12.785h-2.258V8.146c.531-.257.888-.034 1.227.454 2.292 3.288 4.601 6.566 6.969 9.939ZM12.157 11.284l-1.427 1.119c-.386-.357-.74-.69-1.1-1.014a4.283 4.283 0 0 0-2.108-1.132 4.218 4.218 0 0 0-2.373.184c-.449.12-.85.379-1.149.742-.299.363-.48.812-.52 1.286a2.19 2.19 0 0 0 .168 1.327c.193.412.51.75.903.965 1.403.797 2.866 1.483 4.261 2.292a10.248 10.248 0 0 1 2.426 1.739c2.205 2.379 1.225 6.38-1.797 7.645a7.401 7.401 0 0 1-5.354.11A7.625 7.625 0 0 1 0 23l1.506-1.167a21.748 21.748 0 0 0 2.368 2.206 4.422 4.422 0 0 0 4.645.397c.462-.196.86-.527 1.14-.952.283-.425.437-.924.446-1.438a2.354 2.354 0 0 0-.273-1.36 2.274 2.274 0 0 0-.985-.954c-1.51-.816-3.05-1.572-4.55-2.404a13.143 13.143 0 0 1-1.69-1.205C.344 14.347.755 10.419 3.38 8.9c2.808-1.624 7.04-.818 8.778 2.383Z" fill="#000"/><path d="M89.947 26.571c-.103.028-.208.05-.314.064-1.852.07-1.852.07-2.571-1.671-.825-1.993-.825-1.993-2.975-1.993-1.945 0-3.884.02-5.824-.011-.505-.008-.786.11-.963.63-.266.788-.669 1.528-.93 2.314a.955.955 0 0 1-.408.622.907.907 0 0 1-.72.12 11.61 11.61 0 0 0-1.355-.01c.039-.164.086-.325.14-.483a8303.642 8303.642 0 0 1 7.267-17.436c.064-.136.156-.255.27-.35a.995.995 0 0 1 .388-.201c.176-.022.486.301.585.537a4339.732 4339.732 0 0 1 7.214 17.293c.064.163.113.335.196.575Zm-8.045-14.464-3.513 8.837h7.026l-3.513-8.837ZM107.395 8.48h11.281v1.864h-9.134V15.9h6.963v1.953h-6.974v6.85h9.468v1.885h-11.604V8.479ZM59.106 23.006l1.505-1.141c.47.539.873 1.084 1.356 1.543a5.003 5.003 0 0 0 2.37 1.386c.9.23 1.845.2 2.73-.086a2.699 2.699 0 0 0 1.405-.842 2.81 2.81 0 0 0 .682-1.517c.11-.558.03-1.14-.227-1.645a2.453 2.453 0 0 0-1.187-1.132c-1.108-.592-2.249-1.123-3.343-1.742a18.004 18.004 0 0 1-2.654-1.7 4.284 4.284 0 0 1-1.17-1.553 4.387 4.387 0 0 1 .128-3.82 4.263 4.263 0 0 1 1.27-1.468 6.413 6.413 0 0 1 2.391-1.028 6.343 6.343 0 0 1 2.594.012c.854.183 1.665.54 2.382 1.051a6.592 6.592 0 0 1 1.79 1.922l-1.469 1.152c-.225-.264-.418-.498-.62-.724a4.6 4.6 0 0 0-2.34-1.411 4.517 4.517 0 0 0-2.708.177c-1.89.826-2.203 3.143-.511 4.323a35.953 35.953 0 0 0 3.306 1.805c.853.47 1.722.922 2.53 1.465.742.456 1.33 1.13 1.69 1.935.36.805.475 1.703.33 2.576a4.722 4.722 0 0 1-.973 2.402 4.549 4.549 0 0 1-2.078 1.494 7.295 7.295 0 0 1-5.214.037 7.518 7.518 0 0 1-3.965-3.471ZM93.307 8.478h11.035v1.88h-8.919v6.235h7.386v1.981h-7.426v8.013h-2.076V8.478Z" fill="#BF272A"/><path d="M18.677 16.877c2.535-2.696 5.005-5.302 7.447-7.934.16-.198.366-.352.598-.45a1.5 1.5 0 0 1 .733-.11c.636.047 1.278.011 2.119.011L21.58 16.88l8.706 9.771c-.927.078-1.86.06-2.784-.053-.457-.1-.816-.741-1.192-1.16a2336.052 2336.052 0 0 1-6.027-6.755c-.528-.591-1.056-1.187-1.607-1.806ZM18.535 26.653h-2.07V8.44h2.07v18.212ZM35.035 26.646h-2.07V13.01h2.07v13.637ZM40.308 4.185a9.476 9.476 0 0 0-6.322-2.451A9.57 9.57 0 0 0 27.728 4.2l-1.133-1.213c4.253-4.275 11.42-3.66 14.74-.064l-1.027 1.262Z" fill="#000"/><path d="m39.222 5.26-1.166 1.187c-2.672-2.075-5.39-2.01-8.11.008l-1.089-1.182c2.397-2.713 7.63-2.79 10.365-.013Z" fill="#000"/><path d="M37.047 7.456a4.725 4.725 0 0 0-.348.377 1.222 1.222 0 0 1-.722.586 1.19 1.19 0 0 1-.916-.1 3.292 3.292 0 0 0-2.208.026c-.247.142-.537.18-.81.106a1.09 1.09 0 0 1-.654-.503 2.867 2.867 0 0 0-.4-.345c1.045-1.41 4.224-1.791 6.058-.147ZM35.413 10.35c-.006.38-.154.742-.415 1.012-.26.27-.612.427-.983.436a1.481 1.481 0 0 1-.981-.444 1.552 1.552 0 0 1-.44-1.003 1.488 1.488 0 0 1 .431-1.048 1.39 1.39 0 0 1 1.034-.412 1.303 1.303 0 0 1 .99.424 1.37 1.37 0 0 1 .364 1.035Z" fill="#000"/></g><defs><clipPath id="a"><path fill="#fff" d="M0 0h119v27H0z"/></clipPath></defs></svg>